<?xml version="1.0" encoding="utf-8"?>
<svg version="1.1" id="Layer_1" xmlns="http://www.w3.org/2000/svg" x="0px" y="0px" width="100%" viewBox="0 0 4752 7560" enable-background="new 0 0 4752 7560">
  <rect x="-73.929" y="-2.046" width="4835.74" height="7641.64" style="stroke: rgb(0, 0, 0); fill: rgb(59, 63, 71);"/>
  <rect x="778.661" y="2076.64" width="2925.16" height="2365.02" style="fill: rgb(216, 216, 216); stroke: rgb(0, 0, 0);"/>
  <rect x="972.386" y="2308.82" width="2515.02" height="1955.27" style="stroke-width: 37px; stroke: rgb(59, 63, 71); fill: rgb(59, 63, 71);"/>
  <path fill="#FBFDFE" opacity="1.000000" d="M 1259.98 3722.38 C 1259.98 3722.38 1260.86 3720.96 1261.84 3719.29 C 1263.32 3715.21 1263.81 3712.8 1264.3 3710.37 C 1264.3 3710.37 1265.13 3709.21 1266.12 3707.62 C 1267.62 3703.56 1268.13 3701.07 1268.65 3698.59 C 1268.65 3698.59 1268.42 3698.45 1269.43 3697.73 C 1270.94 3694.79 1271.46 3692.58 1271.97 3690.37 C 1271.97 3690.37 1272.83 3688.91 1273.79 3687.25 C 1275.26 3683.22 1275.77 3680.85 1276.27 3678.5 C 1276.27 3678.5 1276.51 3678.36 1277.31 3677.31 C 1278.96 3673.05 1279.82 3669.81 1280.67 3666.59 C 1280.67 3666.59 1280.4 3666.42 1281.42 3665.72 C 1282.94 3662.8 1283.46 3660.58 1283.98 3658.37 C 1283.98 3658.37 1284.86 3656.97 1285.86 3655.31 C 1287.37 3651.23 1287.88 3648.81 1288.38 3646.38 C 1288.38 3646.38 1289.22 3645.3 1290.2 3643.74 C 1291.7 3639.64 1292.21 3637.12 1292.72 3634.6 C 1292.72 3634.6 1292.39 3634.38 1293.46 3633.74 C 1295.02 3630.84 1295.49 3628.61 1295.98 3626.37 C 1295.98 3626.37 1296.81 3624.88 1297.77 3623.21 C 1299.24 3619.13 1299.76 3616.76 1300.28 3614.37 C 1300.28 3614.37 1301.12 3613.19 1302.1 3611.59 C 1303.63 3607.54 1304.16 3605.06 1304.69 3602.58 C 1304.69 3602.58 1304.39 3602.38 1305.43 3601.72 C 1306.99 3598.82 1307.52 3596.6 1308.05 3594.37 C 1308.05 3594.37 1308.89 3592.98 1309.87 3591.31 C 1311.34 3587.23 1311.83 3584.81 1312.33 3582.37 C 1312.33 3582.37 1313.14 3581.2 1314.11 3579.6 C 1315.58 3575.54 1316.09 3573.06 1316.6 3570.58 C 1316.6 3570.58 1316.46 3570.48 1317.41 3569.71 C 1318.88 3566.76 1319.38 3564.57 1319.9 3562.38 C 1319.9 3562.38 1320.76 3560.85 1321.72 3559.15 C 1323.19 3555.1 1323.69 3552.75 1324.2 3550.38 C 1324.2 3550.38 1325.06 3549.12 1326.05 3547.53 C 1327.55 3543.48 1328.07 3541.03 1328.58 3538.57 C 1328.58 3538.57 1328.47 3538.48 1329.4 3537.7 C 1330.85 3534.75 1331.38 3532.56 1331.89 3530.38 C 1331.89 3530.38 1332.79 3528.91 1333.79 3527.24 C 1335.3 3523.16 1335.8 3520.78 1336.3 3518.37 C 1336.3 3518.37 1337.13 3517.21 1338.13 3515.62 C 1339.61 3511.55 1340.11 3509.06 1340.61 3506.56 C 1340.61 3506.56 1340.42 3506.45 1341.41 3505.72 C 1342.9 3502.79 1343.41 3500.57 1343.92 3498.37 C 1343.92 3498.37 1344.78 3496.87 1345.76 3495.21 C 1347.26 3491.2 1347.77 3488.83 1348.29 3486.49 C 1348.29 3486.49 1348.52 3486.37 1349.32 3485.33 C 1350.98 3481.06 1351.85 3477.83 1352.7 3474.59 C 1352.7 3474.59 1352.39 3474.38 1353.45 3473.73 C 1355.03 3470.83 1355.55 3468.6 1356.07 3466.37 C 1356.07 3466.37 1356.92 3465.01 1357.9 3463.36 C 1359.37 3459.31 1359.84 3456.89 1360.32 3454.48 C 1360.32 3454.48 1360.53 3454.38 1361.32 3453.34 C 1362.92 3449.06 1363.73 3445.81 1364.55 3442.56 C 1364.55 3442.56 1364.49 3442.48 1365.51 3441.51 C 1368.36 3434.49 1370.2 3428.42 1372.05 3422.36 C 1372.05 3422.36 1372.92 3421.01 1373.93 3419.39 C 1375.45 3415.37 1375.97 3412.96 1376.51 3410.55 C 1376.51 3410.55 1376.52 3410.47 1377.4 3409.69 C 1378.82 3406.73 1379.34 3404.56 1379.87 3402.39 C 1379.87 3402.39 1380.78 3400.9 1381.79 3399.26 C 1383.32 3395.23 1383.83 3392.85 1384.34 3390.5 C 1384.34 3390.5 1384.54 3390.41 1385.39 3389.41 C 1387.07 3385.14 1387.88 3381.87 1388.69 3378.61 C 1388.69 3378.61 1388.42 3378.45 1389.47 3377.76 C 1391.01 3374.83 1391.47 3372.6 1391.95 3370.37 C 1391.95 3370.37 1392.8 3368.87 1393.77 3367.21 C 1395.24 3363.2 1395.73 3360.84 1396.23 3358.49 C 1396.23 3358.49 1396.49 3358.34 1397.3 3357.3 C 1398.94 3353.03 1399.79 3349.81 1400.62 3346.57 C 1400.62 3346.57 1400.42 3346.45 1401.41 3345.72 C 1402.9 3342.79 1403.41 3340.58 1403.92 3338.38 C 1403.91 3338.38 1404.8 3336.89 1405.78 3335.23 C 1407.23 3331.17 1407.7 3328.81 1408.17 3326.42 C 1408.17 3326.42 1408.42 3326.29 1409.19 3325.23 C 1410.8 3320.95 1411.62 3317.74 1412.43 3314.53 C 1412.43 3314.53 1412.54 3314.46 1413.37 3313.63 C 1414.7 3310.69 1415.22 3308.54 1415.73 3306.39 C 1415.73 3306.39 1416.62 3304.75 1417.6 3303.04 C 1419.07 3299.05 1419.58 3296.77 1420.08 3294.49 C 1420.08 3294.49 1420.47 3294.26 1421.2 3293.14 C 1422.78 3288.87 1423.62 3285.73 1424.44 3282.56 C 1424.44 3282.56 1424.63 3282.48 1425.48 3281.48 C 1427.16 3277.22 1427.98 3273.95 1428.81 3270.67 C 1428.81 3270.67 1428.42 3270.45 1429.56 3269.8 C 1431.15 3266.89 1431.63 3264.63 1432.12 3262.38 C 1432.12 3262.38 1432.99 3261.09 1434.07 3259.35 C 1438.13 3248.54 1441.13 3239.46 1444.13 3230.37 C 1444.13 3230.37 1444.99 3229.06 1445.99 3227.47 C 1447.52 3223.42 1448.03 3221 1448.55 3218.56 C 1448.55 3218.56 1448.49 3218.48 1449.41 3217.71 C 1450.87 3214.76 1451.38 3212.56 1451.9 3210.39 C 1451.9 3210.39 1452.81 3208.91 1453.81 3207.25 C 1455.28 3203.22 1455.77 3200.84 1456.24 3198.49 C 1456.24 3198.49 1456.48 3198.35 1457.33 3197.26 C 1460.11 3190.24 1462.04 3184.31 1463.96 3178.37 C 1463.96 3178.37 1464.83 3176.88 1465.8 3175.23 C 1467.26 3171.22 1467.74 3168.87 1468.22 3166.53 C 1468.22 3166.53 1468.54 3166.36 1469.38 3165.21 C 1474.79 3152.35 1479.54 3140.74 1483.81 3128.94 C 1489.41 3113.47 1494.64 3097.85 1500.03 3082.31 C 1500.03 3082.31 1500.9 3080.95 1501.96 3079.16 C 1507.38 3064.38 1511.73 3051.37 1516.09 3038.37 C 1516.09 3038.37 1516.95 3037.03 1518.01 3035.26 C 1522.01 3024.45 1524.95 3015.41 1527.89 3006.37 C 1527.89 3006.37 1528.82 3004.93 1529.84 3003.3 C 1531.38 2999.3 1531.88 2996.93 1532.39 2994.57 C 1532.39 2994.57 1532.62 2994.47 1533.47 2993.47 C 1535.15 2989.2 1535.96 2985.91 1536.77 2982.64 C 1536.77 2982.64 1536.41 2982.41 1537.52 2981.78 C 1539.1 2978.89 1539.57 2976.64 1540.05 2974.39 C 1540.05 2974.39 1540.9 2972.97 1541.88 2971.34 C 1543.38 2967.32 1543.89 2964.93 1544.41 2962.55 C 1544.41 2962.55 1544.61 2962.47 1545.47 2961.47 C 1547.16 2957.22 1547.98 2953.95 1548.82 2950.68 C 1548.82 2950.68 1548.44 2950.47 1549.57 2949.8 C 1551.13 2946.89 1551.59 2944.64 1552.04 2942.39 C 1552.04 2942.39 1552.9 2940.97 1553.86 2939.3 C 1555.31 2935.26 1555.8 2932.87 1556.3 2930.49 C 1556.3 2930.49 1556.52 2930.39 1557.34 2929.36 C 1558.97 2925.07 1559.79 2921.82 1560.61 2918.57 C 1560.61 2918.57 1560.44 2918.47 1561.42 2917.72 C 1562.91 2914.78 1563.42 2912.59 1563.93 2910.39 C 1563.93 2910.39 1564.82 2908.93 1565.81 2907.26 C 1567.32 2903.24 1567.84 2900.89 1568.37 2898.53 C 1568.37 2898.53 1568.58 2898.43 1569.39 2897.39 C 1571.06 2893.12 1571.91 2889.89 1572.77 2886.64 C 1572.77 2886.64 1572.42 2886.45 1573.52 2885.78 C 1575.11 2882.87 1575.61 2880.62 1576.11 2878.39 C 1576.11 2878.39 1576.98 2877.09 1577.98 2875.47 C 1579.47 2871.43 1579.97 2869.01 1580.47 2866.59 C 1580.47 2866.59 1580.63 2866.49 1581.52 2865.51 C 1583.17 2861.22 1583.95 2857.91 1584.74 2854.62 C 1584.74 2854.62 1584.4 2854.39 1585.48 2853.74 C 1587.06 2850.87 1587.54 2848.62 1588.02 2846.39 C 1588.02 2846.39 1588.87 2844.93 1589.84 2843.28 C 1591.33 2839.24 1591.84 2836.86 1592.36 2834.47 C 1592.36 2834.47 1592.52 2834.41 1593.37 2833.41 C 1595.07 2829.14 1595.91 2825.89 1596.78 2822.62 C 1596.78 2822.62 1596.39 2822.39 1597.49 2821.76 C 1599.09 2818.87 1599.57 2816.62 1600.06 2814.37 C 1600.06 2814.37 1600.91 2813.01 1601.91 2811.39 C 1603.45 2807.37 1603.99 2804.95 1604.54 2802.55 C 1604.54 2802.55 1604.45 2802.45 1605.4 2801.7 C 1606.87 2798.76 1607.38 2796.57 1607.89 2794.37 C 1607.89 2794.37 1608.78 2792.89 1609.78 2791.24 C 1611.29 2787.22 1611.81 2784.86 1612.33 2782.49 C 1612.33 2782.49 1612.54 2782.41 1613.3 2781.55 C 1614.6 2778.61 1615.13 2776.49 1615.64 2774.39 C 1615.64 2774.39 1616.57 2772.72 1617.51 2770.97 C 1618.95 2766.93 1619.45 2764.66 1619.94 2762.37 C 1619.94 2762.37 1620.83 2760.93 1621.81 2759.26 C 1623.29 2755.18 1623.79 2752.78 1624.28 2750.37 C 1624.28 2750.37 1625.13 2749.2 1626.12 2747.59 C 1627.57 2743.45 1628.04 2740.91 1628.51 2738.39 C 1628.51 2738.39 1629.32 2737.37 1630.15 2736.03 C 1631.18 2733.22 1631.38 2731.78 1631.59 2730.36 C 1632.13 2729.03 1632.65 2727.72 1634.13 2724.59 C 1635.3 2721.3 1635.51 2719.82 1635.71 2718.36 C 1636.28 2717.12 1636.84 2715.91 1638.4 2712.87 C 1639.68 2709.49 1639.94 2707.93 1640.2 2706.37 C 1640.2 2706.37 1641.06 2705.2 1641.95 2703.84 C 1643.12 2701.11 1643.37 2699.72 1643.62 2698.34 C 1644.21 2697.16 1644.82 2695.95 1646.45 2692.93 C 1647.77 2689.53 1648.04 2687.95 1648.31 2686.37 C 1648.31 2686.37 1649.13 2685.28 1650.03 2683.91 C 1651.18 2681.16 1651.44 2679.74 1651.69 2678.34 C 1653.14 2675.22 1654.6 2672.11 1657.56 2667.3 C 1660.89 2665.76 1662.72 2665.89 1664.56 2666.03 C 1675.64 2680.93 1686.41 2696.05 1697.88 2710.64 C 1721.71 2740.91 1745.91 2770.89 1771.38 2803.09 C 1787.39 2822.78 1801.98 2840.39 1816.58 2857.99 C 1817.22 2859.16 1817.88 2860.3 1819.71 2863.22 C 1826.03 2870.84 1831.15 2876.7 1836.28 2882.55 C 1836.28 2882.55 1836.4 2882.39 1836.63 2883.78 C 1852.69 2904.26 1868.54 2923.34 1884.37 2942.41 C 1884.37 2942.41 1884.39 2942.39 1884.69 2943.74 C 1902.47 2967.2 1919.91 2989.34 1937.48 3011.37 C 1939.47 3013.87 1942.2 3015.78 1944.6 3017.95 C 1945.22 3019.12 1945.87 3020.28 1947.65 3023.2 C 1952.7 3029.37 1956.61 3033.8 1960.51 3038.22 C 1960.51 3038.22 1960.38 3038.37 1960.78 3039.66 C 1975.29 3057.98 1989.4 3075.02 2003.53 3092.05 C 2020.4 3113.67 2037.29 3135.3 2055.57 3158.84 C 2059.26 3163 2061.55 3165.22 2063.86 3167.45 C 2072.51 3178.66 2081.16 3189.89 2091.26 3203.17 C 2107.32 3222.86 2121.91 3240.51 2136.51 3258.14 C 2136.7 3259.52 2137.32 3260.66 2139.47 3263.33 C 2144.55 3269.49 2148.49 3273.9 2152.43 3278.31 C 2152.43 3278.31 2152.39 3278.38 2152.7 3279.65 C 2158.14 3286.73 2163.3 3292.52 2168.43 3298.31 C 2168.43 3298.31 2168.39 3298.38 2168.74 3299.66 C 2175.43 3308.26 2181.8 3315.56 2188.16 3322.86 C 2195.01 3331.81 2201.86 3340.76 2210.41 3351.57 C 2218.89 3361.76 2225.68 3370.05 2232.72 3379.56 C 2235.22 3383.05 2237.49 3385.33 2240.26 3388.84 C 2259.18 3413.48 2277.53 3436.91 2296.03 3460.25 C 2298.03 3462.78 2300.8 3464.71 2303.76 3468.19 C 2306.11 3472.25 2307.66 3475.23 2309.74 3477.79 C 2329.82 3502.63 2349.89 3527.49 2370.14 3552.19 C 2376.78 3560.29 2383.93 3567.96 2390.2 3575.07 C 2392.49 3574.87 2393.32 3575.06 2393.78 3574.73 C 2421.99 3553.56 2450.14 3532.33 2478.34 3511.19 C 2533.2 3470.06 2588.28 3429.24 2642.88 3387.77 C 2672.97 3364.9 2704.88 3344.36 2732.39 3318.2 C 2740.36 3318.41 2743.14 3312.12 2749.22 3305.44 C 2756.43 3303.31 2760.18 3305.03 2763.18 3308.6 C 2769.36 3325.74 2780.47 3339.97 2790.45 3354.85 C 2794.16 3360.36 2798.18 3365.65 2801.89 3371.16 C 2824.49 3404.77 2847.18 3438.31 2869.57 3472.05 C 2888.63 3500.79 2907.11 3529.91 2926.22 3558.61 C 2946.09 3588.46 2966.61 3617.87 2986.51 3647.69 C 3018.89 3696.19 3050.93 3744.91 3083.26 3793.46 C 3149.76 3893.34 3216.34 3993.16 3282.91 4093.02 C 3287.7 4100.2 3292.74 4107.21 3297.24 4114.57 C 3299.22 4117.79 3300.14 4121.65 3301.97 4126.31 C 3298.03 4127.59 3295.07 4129.23 3292.03 4129.4 C 3284.07 4129.84 3276.05 4129.67 3268.05 4129.69 C 3168.09 4129.73 3068.14 4129.79 2964.49 4129.9 C 2920.63 4130.23 2880.45 4130.5 2838.45 4130.4 C 2629.24 4130.17 2421.86 4130.34 2214.47 4130.54 C 2209.84 4130.54 2205.22 4131.11 2198.97 4131.09 C 2192.99 4131 2188.64 4131.21 2182.49 4131.07 C 2167.34 4130.98 2153.97 4131.25 2138.76 4131.21 C 2115.36 4131.06 2093.82 4131.21 2070.45 4131 C 1992.54 4130.44 1916.45 4130.25 1840.38 4130.09 C 1836.42 4130.09 1832.47 4130.61 1826.67 4130.59 C 1660.4 4129.81 1496.01 4129.34 1331.61 4128.9 C 1328.29 4128.88 1324.97 4129.32 1320.07 4128.94 C 1277.28 4128.21 1236.1 4128.09 1194.91 4128.09 C 1192.34 4128.09 1189.76 4129.07 1185.41 4129.31 C 1166.56 4129.42 1149.46 4129.84 1132.37 4130.25 C 1125.95 4129.21 1119.55 4128.19 1113.69 4127.25 C 1110.27 4120.88 1113.27 4116.21 1115.1 4111.32 C 1136.68 4053.8 1158.24 3996.25 1179.8 3938.7 C 1180.26 3937.46 1180.53 3936.15 1182.06 3932.55 C 1183.74 3927.69 1184.28 3925.15 1184.81 3922.62 C 1184.81 3922.62 1184.39 3922.48 1185.47 3921.8 C 1187.09 3918.86 1187.62 3916.61 1188.15 3914.37 C 1188.15 3914.37 1188.99 3913.08 1189.99 3911.46 C 1191.52 3907.34 1192.04 3904.86 1192.57 3902.39 C 1192.57 3902.39 1193.38 3901.44 1194.34 3899.89 C 1195.83 3895.79 1196.35 3893.23 1196.87 3890.66 C 1196.87 3890.66 1196.39 3890.47 1197.53 3889.81 C 1199.15 3886.9 1199.65 3884.64 1200.15 3882.37 C 1200.15 3882.37 1200.96 3881.02 1201.91 3879.38 C 1203.39 3875.33 1203.91 3872.92 1204.43 3870.52 C 1204.43 3870.52 1204.54 3870.45 1205.4 3869.47 C 1207.14 3865.21 1208.01 3861.95 1208.88 3858.67 C 1208.88 3858.67 1208.39 3858.41 1209.55 3857.81 C 1211.22 3854.92 1211.74 3852.65 1212.27 3850.38 C 1212.27 3850.38 1213.12 3849.21 1214.11 3847.61 C 1215.59 3843.54 1216.08 3841.05 1216.57 3838.56 C 1216.57 3838.56 1216.45 3838.47 1217.43 3837.54 C 1219.23 3833.31 1220.07 3830 1220.88 3826.69 C 1220.88 3826.69 1220.39 3826.41 1221.56 3825.81 C 1223.2 3822.92 1223.69 3820.65 1224.18 3818.37 C 1224.18 3818.37 1225.02 3817.06 1225.98 3815.45 C 1227.44 3811.4 1227.93 3808.97 1228.42 3806.54 C 1228.42 3806.54 1228.58 3806.47 1229.45 3805.48 C 1231.16 3801.22 1231.99 3797.94 1232.82 3794.65 C 1232.82 3794.65 1232.39 3794.39 1233.53 3793.78 C 1235.15 3790.89 1235.66 3788.63 1236.17 3786.37 C 1236.17 3786.37 1237.05 3785.14 1238.05 3783.55 C 1239.55 3779.5 1240.05 3777.04 1240.55 3774.57 C 1240.55 3774.57 1240.53 3774.49 1241.49 3773.56 C 1243.27 3769.31 1244.06 3766 1244.86 3762.69 C 1244.86 3762.69 1244.39 3762.38 1245.55 3761.78 C 1247.17 3758.9 1247.66 3756.64 1248.14 3754.37 C 1248.14 3754.37 1248.96 3753.02 1249.92 3751.38 C 1251.38 3747.34 1251.88 3744.95 1252.37 3742.54 C 1252.37 3742.54 1252.58 3742.44 1253.4 3741.4 C 1255.04 3737.11 1255.86 3733.85 1256.67 3730.59 C 1256.67 3730.59 1256.41 3730.44 1257.43 3729.73 C 1258.96 3726.81 1259.47 3724.59 1259.98 3722.38 Z" stroke="none"/>
  <path fill="#FBFCFD" opacity="1.000000" stroke="none" d="M 2764.44 2827.51 C 2764.23 2825.87 2764.02 2824.22 2763.54 2820.25 C 2762.3 2815.81 2761.34 2813.69 2760.37 2811.58 C 2760.25 2809.94 2760.12 2808.3 2759.78 2803.79 C 2757.94 2783.84 2755.51 2766.79 2754.91 2749.68 C 2754.28 2731.9 2755.43 2714.05 2756.29 2694.79 C 2757.55 2690.11 2758.38 2686.88 2759.08 2683.63 C 2775.96 2605.01 2819.48 2545.15 2888.51 2504.8 C 2945.04 2471.77 3006.43 2461.43 3071.38 2471.72 C 3121.96 2479.73 3166.68 2500.6 3205.34 2533.44 C 3244.09 2566.35 3271.66 2607.58 3288.12 2655.93 C 3290.46 2662.8 3292.77 2669.68 3295.09 2676.56 C 3295.85 2683.14 3296.37 2689.76 3297.41 2696.3 C 3310 2775.93 3292.45 2848.56 3243.65 2912.35 C 3211.61 2954.22 3170.14 2984.72 3119.54 3002.21 C 3086.53 3013.61 3053.07 3020.8 3018.05 3019.24 C 2995.4 3018.23 2973.28 3013.74 2948.78 3007.21 C 2942.9 3005.6 2939.6 3004.92 2936.3 3004.25 C 2936.3 3004.25 2936.08 3003.86 2935 3003.08 C 2930.74 3001.52 2927.56 3000.74 2924.37 2999.96 C 2924.37 2999.96 2924.24 2999.69 2923.47 2998.82 C 2920.58 2997.43 2918.46 2996.92 2916.34 2996.42 C 2916.34 2996.42 2916.04 2995.88 2915.11 2995.19 C 2912.24 2993.97 2910.32 2993.43 2908.4 2992.89 C 2908.4 2992.89 2907.8 2992.23 2906.63 2991.37 C 2902.57 2989.51 2899.67 2988.52 2896.77 2987.52 C 2896.77 2987.52 2896.67 2987.25 2896.18 2986.44 C 2894.7 2984.73 2893.56 2984.45 2892.27 2984.78 C 2892.27 2984.78 2891.94 2984.14 2891.05 2983.26 C 2888.22 2981.59 2886.28 2980.82 2884.34 2980.04 C 2884.34 2980.04 2884.28 2979.79 2883.87 2978.95 C 2881.14 2976.6 2879.37 2973.2 2875.83 2975.87 C 2870.16 2973.49 2867.23 2966.79 2859.61 2964.01 C 2855.43 2959.4 2853.33 2954.86 2848.1 2955.65 C 2837.77 2945.84 2827.44 2936.03 2816.02 2924.03 C 2813.77 2917.98 2812.87 2913.93 2808.09 2912.81 C 2808.09 2912.81 2807.66 2912.16 2806.9 2911.52 C 2805.65 2909.95 2805 2909.14 2804.19 2908.46 C 2804.19 2908.46 2804.39 2908.17 2804.3 2906.72 C 2800.37 2899.56 2796.53 2893.86 2792.69 2888.15 C 2792.69 2888.15 2792.78 2887.76 2792.6 2886.57 C 2791 2883.8 2789.59 2882.21 2788.18 2880.62 C 2788.18 2880.62 2788.24 2880.04 2787.81 2879.07 C 2786.75 2876.84 2785.73 2876.18 2784.32 2876.12 C 2784.32 2876.12 2784.25 2876.04 2784.18 2874.84 C 2782.84 2871.83 2781.57 2870.02 2780.3 2868.21 C 2780.3 2868.21 2780.27 2868.09 2780.31 2866.8 C 2778.86 2862.61 2777.38 2859.73 2775.89 2856.84 C 2775.89 2856.84 2776.14 2856.33 2775.96 2855.09 C 2774.53 2852.07 2773.28 2850.28 2772.03 2848.5 C 2772.03 2848.5 2772.15 2848.22 2772.06 2846.95 C 2770.77 2843.68 2769.57 2841.67 2768.37 2839.67 C 2768.37 2839.67 2768.25 2837.87 2767.95 2835.86 C 2766.59 2831.74 2765.51 2829.63 2764.44 2827.51 Z"/>
  <text style="fill: rgb(251, 253, 254); font-family: Arial, sans-serif; font-size: 150px; font-weight: 900; white-space: pre;" transform="matrix(2.67325, 0, 0, 3.13037, -1591.85, -13462.6)" x="674.547" y="6111.19">IMAGE NOT FOUND</text>
</svg>