<?xml version="1.0" standalone="no"?>
<!DOCTYPE svg PUBLIC "-//W3C//DTD SVG 20010904//EN"
 "http://www.w3.org/TR/2001/REC-SVG-20010904/DTD/svg10.dtd">
<svg version="1.0" xmlns="http://www.w3.org/2000/svg"
 width="8500.000000pt" height="5154.000000pt" viewBox="0 0 8500.000000 5154.000000"
 preserveAspectRatio="xMidYMid meet">

<g transform="translate(0.000000,5154.000000) scale(0.100000,-0.100000)"
fill="#000000" stroke="none">
<path d="M41960 50919 c-47 -4 -238 -13 -425 -19 -483 -15 -942 -46 -1495
-101 -4567 -451 -8986 -2179 -12705 -4968 -1448 -1086 -2807 -2354 -3981
-3716 -2833 -3288 -4733 -7210 -5554 -11465 -238 -1237 -383 -2474 -440 -3760
-39 -888 -39 -1422 0 -2335 182 -4233 1385 -8240 3548 -11820 1721 -2847 4029
-5350 6757 -7326 3792 -2748 8283 -4393 12896 -4723 1295 -93 2335 -93 3639 0
2787 198 5475 838 8040 1914 1077 452 2185 1013 3195 1618 5204 3117 9118
7999 10988 13707 839 2559 1261 5262 1242 7945 -7 944 -56 1779 -155 2667
-570 5080 -2677 9844 -6074 13733 -832 952 -1795 1898 -2766 2716 -1513 1273
-3164 2365 -4910 3243 -558 281 -908 445 -1405 659 -1858 799 -3825 1375
-5815 1701 -1048 172 -2141 281 -3115 311 -181 6 -386 15 -455 20 -145 12
-885 11 -1010 -1z m1455 -1979 c127 -6 336 -17 465 -25 129 -8 276 -17 325
-20 110 -7 131 -8 470 -40 605 -57 1201 -135 1790 -236 214 -37 794 -149 950
-184 406 -90 828 -191 1005 -240 47 -13 146 -40 220 -60 137 -36 259 -71 450
-127 153 -45 658 -204 780 -245 58 -20 155 -53 215 -73 1193 -406 2542 -1009
3695 -1653 2239 -1249 4220 -2827 5954 -4742 1769 -1954 3207 -4229 4224
-6685 79 -191 220 -549 262 -665 10 -27 32 -88 50 -135 127 -341 347 -1002
455 -1363 219 -736 386 -1417 535 -2182 22 -110 44 -227 49 -260 5 -33 21
-123 35 -200 43 -240 126 -793 145 -965 6 -47 21 -179 35 -295 32 -266 73
-694 86 -895 58 -894 63 -1042 63 -1850 0 -694 -8 -982 -38 -1445 -8 -121 -19
-294 -25 -385 -28 -450 -122 -1279 -211 -1850 -162 -1040 -379 -2015 -671
-3010 -98 -334 -302 -958 -413 -1265 -66 -184 -174 -472 -195 -525 -11 -25
-40 -99 -66 -165 -403 -1035 -1008 -2263 -1607 -3265 -1046 -1749 -2267 -3293
-3742 -4731 -1901 -1852 -4138 -3389 -6555 -4502 -466 -214 -773 -345 -1340
-569 -621 -245 -1536 -547 -2225 -732 -93 -26 -210 -57 -260 -71 -300 -81
-892 -216 -1330 -304 -230 -46 -740 -136 -850 -150 -38 -5 -146 -21 -240 -35
-187 -28 -581 -79 -745 -96 -58 -6 -186 -19 -285 -30 -99 -10 -220 -21 -270
-25 -49 -3 -142 -10 -205 -15 -929 -78 -2408 -80 -3475 -5 -115 8 -248 17
-295 20 -413 27 -1412 146 -1885 226 -781 130 -1230 222 -1915 391 -273 67
-326 81 -575 149 -564 155 -1271 380 -1745 556 -610 225 -849 321 -1425 570
-418 182 -1172 550 -1615 789 -1512 815 -2890 1768 -4195 2899 -528 457 -1360
1266 -1821 1770 -790 863 -1452 1697 -2091 2635 -853 1250 -1541 2511 -2176
3985 -143 333 -327 805 -502 1290 -66 182 -276 815 -321 965 -20 69 -49 168
-65 220 -279 921 -544 2105 -698 3115 -93 610 -182 1383 -211 1840 -6 88 -17
257 -25 375 -32 477 -39 723 -39 1465 0 746 7 985 40 1462 8 116 19 278 24
360 13 196 55 618 86 873 14 113 29 243 35 290 52 467 206 1342 363 2060 75
341 267 1091 345 1345 10 33 33 110 51 170 106 360 354 1108 433 1310 9 22 39
101 66 175 137 369 284 731 494 1215 75 174 286 624 417 890 1002 2036 2333
3949 3915 5630 224 238 743 756 980 980 1647 1549 3522 2858 5522 3859 495
247 1095 523 1483 681 401 164 717 287 950 370 36 13 117 42 180 65 267 96
923 312 1090 358 19 6 107 31 195 57 463 136 1120 302 1595 403 859 183 1775
328 2505 396 479 46 589 55 685 61 58 3 166 10 240 15 259 18 547 32 835 40
346 10 1238 4 1560 -10z"/>
<path d="M42275 42394 c-652 -28 -1127 -85 -1672 -200 -1524 -320 -2942 -1028
-4106 -2047 -2014 -1763 -3132 -4310 -3084 -7022 8 -442 33 -767 88 -1165 229
-1653 878 -3166 1903 -4440 370 -460 868 -956 1341 -1336 1471 -1182 3302
-1870 5255 -1974 240 -13 798 -13 1026 0 1869 106 3644 785 5118 1958 349 278
877 778 1147 1087 709 810 1253 1686 1637 2635 180 445 340 958 442 1415 369
1654 271 3369 -283 4966 -344 990 -885 1959 -1552 2774 -213 260 -345 406
-625 686 -379 380 -604 576 -995 869 -335 250 -600 425 -945 622 -1163 665
-2474 1064 -3784 1153 -224 15 -752 26 -911 19z"/>
<path d="M41995 22224 c-55 -2 -280 -8 -500 -14 -1074 -29 -2648 -134 -3450
-231 -2574 -310 -4797 -1167 -6657 -2566 -1265 -951 -2378 -2175 -3290 -3619
-460 -727 -909 -1587 -1280 -2449 -157 -365 -198 -492 -217 -684 -18 -174 10
-321 95 -498 95 -198 245 -372 824 -957 1646 -1663 3437 -3015 5395 -4071 443
-240 1123 -568 1570 -759 99 -42 205 -88 235 -101 209 -89 686 -272 1020 -389
1623 -572 3298 -904 4925 -977 288 -13 1227 -7 1625 11 2774 122 5185 563
7440 1360 2866 1014 5308 2534 7357 4579 389 387 880 919 985 1066 147 206
248 517 248 766 0 129 -10 172 -91 379 -635 1635 -1446 3052 -2435 4256 -491
597 -1089 1203 -1654 1675 -844 705 -1756 1282 -2754 1744 -1113 514 -2288
872 -3596 1094 -1167 198 -2406 320 -3795 372 -260 9 -1794 20 -2000 13z"/>
</g>
</svg>
