<?xml version="1.0" encoding="utf-8"?>
<svg version="1.1" id="Layer_1" xmlns="http://www.w3.org/2000/svg" x="0px" y="0px" width="100%" viewBox="0 0 600 600" enable-background="new 0 0 600 600">
  <rect x="-1.274" y="-2.767" width="602.095" height="605.803" style="stroke: rgb(0, 0, 0); fill: rgb(255, 255, 255);"/>
  <text style="fill: rgb(0, 7, 127); font-family: &quot;Sitka Heading&quot;; font-size: 86px; font-weight: 900; white-space: pre;" transform="matrix(1.04061, 0, 0, 1.39019, 8.87407, -118.472)" x="69.906" y="439.132">SalesSavvy</text>
  <g transform="matrix(1.25486, 0, 0, 1.24598, -684.554, -317.278)" style="">
    <path opacity="1.000000" stroke="none" d="M 688.628 466.855 C 688.952 466.726 689.273 466.799 689.593 466.873 C 689.271 466.934 688.948 466.996 688.628 466.855 Z" style="fill: rgb(248, 37, 0);"/>
    <path opacity="1.000000" stroke="none" d="M 888.739 517.681 C 888.682 517.768 888.55 517.396 888.61 517.208 C 888.823 517.19 888.865 517.381 888.739 517.681 Z" style="fill: rgb(248, 37, 0);"/>
    <path opacity="1.000000" d="M 883.609 493.377 C 883.639 493.364 883.58 493.39 883.609 493.377 Z" style="fill: rgb(248, 37, 0);"/>
    <path opacity="1.000000" d="M 868.97 475.88 C 868.71 475.872 868.614 475.725 868.474 475.319 C 868.664 475.287 868.899 475.514 868.97 475.88 Z" style="fill: rgb(248, 37, 0);"/>
    <path opacity="1.000000" d="M 849.645 437.386 C 849.659 437.415 849.632 437.356 849.645 437.386 Z" style="fill: rgb(248, 37, 0);"/>
    <path opacity="1.000000" d="M 848.469 454.425 C 847.766 453.939 846.995 453.114 846.249 451.887 C 846.982 452.352 847.691 453.219 848.469 454.425 Z" style="fill: rgb(248, 37, 0);"/>
    <path opacity="1.000000" d="M 703.555 450.71 C 703.589 450.691 703.522 450.729 703.555 450.71 Z" style="fill: rgb(248, 37, 0);"/>
    <path opacity="1.000000" d="M 750.857 375.837 C 751.114 375.923 751.118 376.118 751.122 376.605 C 750.948 376.896 750.774 376.895 750.339 376.886 C 750.254 376.567 750.429 376.256 750.857 375.837 Z" style="fill: rgb(248, 37, 0);"/>
    <path opacity="1.000000" d="M 732.15 496.269 C 731.761 496.412 731.219 496.285 730.455 495.987 C 730.822 495.877 731.409 495.937 732.15 496.269 Z" style="fill: rgb(248, 37, 0);"/>
    <path opacity="1.000000" d="M 703.827 464.283 C 704.032 464.355 703.73 464.542 703.73 464.542 C 703.73 464.542 703.383 464.499 703.295 464.417 C 703.206 464.335 703.622 464.211 703.827 464.283 Z" style="fill: rgb(248, 37, 0);"/>
    <path opacity="1.000000" stroke="none" d="M 679.048 537.934 C 679.223 537.975 678.931 538.107 678.931 538.107 C 678.931 538.107 678.612 538.033 678.564 537.936 C 678.515 537.839 678.872 537.892 679.048 537.934 Z" style="fill: rgb(248, 37, 0);"/>
    <path opacity="1.000000" d="M 718.601 486.411 C 718.588 486.382 718.615 486.441 718.601 486.411 Z" style="fill: rgb(248, 37, 0);"/>
    <path opacity="1.000000" d="M 864.134 537.577 C 864.096 537.577 864.171 537.577 864.134 537.577 Z" style="fill: rgb(248, 37, 0);"/>
    <path opacity="1.000000" d="M 878.395 527.841 C 878.269 527.609 878.457 527.351 878.93 527.026 C 878.971 527.189 878.803 527.475 878.395 527.841 Z" style="fill: rgb(248, 37, 0);"/>
    <path opacity="1.000000" d="M 841.125 448.9 C 840.816 449.387 840.507 449.873 840.159 450.129 C 840.121 449.732 840.122 449.565 840.372 449.148 C 840.622 448.898 841.121 448.896 841.121 448.896 C 841.121 448.896 841.123 448.899 841.125 448.9 Z" style="fill: rgb(248, 37, 0);"/>
    <path opacity="1.000000" d="M 783.119 373.901 C 783.115 373.904 782.763 373.679 782.763 373.679 C 782.763 373.679 783.031 373.693 783.08 373.792 C 783.129 373.891 783.123 373.899 783.119 373.901 Z" style="fill: rgb(248, 37, 0);"/>
    <path opacity="1.000000" d="M 718.293 441.242 C 718.528 441.098 718.728 441.132 718.929 441.167 C 718.862 441.412 718.795 441.657 718.728 441.903 C 718.571 441.742 718.415 441.581 718.293 441.242 Z" style="fill: rgb(248, 37, 0);"/>
    <path opacity="1.000000" d="M 747.692 386.086 C 747.659 386.106 747.726 386.067 747.692 386.086 Z" style="fill: rgb(248, 37, 0);"/>
    <path opacity="1.000000" d="M 783.636 353.42 C 783.606 353.434 783.667 353.407 783.636 353.42 Z" style="fill: rgb(248, 37, 0);"/>
    <path opacity="1.000000" d="M 875.438 507.906 C 875.539 507.777 875.64 507.763 875.741 507.749 C 875.64 507.839 875.539 507.93 875.438 507.906 Z" style="fill: rgb(248, 37, 0);"/>
    <rect x="61.16" y="127.619" width="6.5" height="113.512" style="transform-origin: 64.41px 184.375px; fill: rgb(248, 37, 0);" transform="matrix(-0.857167, -0.515038, 0.515038, -0.857167, 667.877968, 217.753288)"/>
    <rect x="61.159" y="46.782" width="6.5" height="41.61" style="transform-origin: 64.41px 67.587px; fill: rgb(248, 37, 0);" transform="matrix(-0.857167, -0.515038, 0.515039, -0.857167, 699.788835, 339.572066)"/>
    <rect x="61.165" y="85.19" width="6.5" height="75.773" style="transform-origin: 64.415px 123.076px; fill: rgb(248, 37, 0);" transform="matrix(0, 1, -1, 0, 730.520957, 307.746989)"/>
    <rect x="61.165" y="113.955" width="6.5" height="101.359" style="transform-origin: -205.835px 164.634px; fill: rgb(248, 37, 0);" transform="matrix(0, 1, -1, 0, 968.28805, 27.501036)"/>
    <rect x="61.157" y="52.18" width="6.5" height="46.411" style="transform-origin: 64.406px 75.385px; fill: rgb(248, 37, 0);" transform="matrix(0.857167, -0.515038, 0.515035, 0.857169, 738.778616, 295.01613)"/>
    <rect x="61.161" y="23.481" width="6.5" height="20.884" style="transform-origin: 64.411px 33.922px; fill: rgb(248, 37, 0);" transform="matrix(0, 1, -1, 0, 735.583973, 366.70901)"/>
    <rect x="61.156" y="43.696" width="6.5" height="38.865" style="transform-origin: 64.405px 63.13px; fill: rgb(248, 37, 0);" transform="matrix(0.866025, -0.5, 0.499997, 0.866027, 769.841142, 420.839812)"/>
    <rect x="61.165" y="140.841" width="6.5" height="125.272" style="transform-origin: 64.415px 203.476px; fill: rgb(248, 37, 0);" transform="matrix(0, 1, -1, 0, 712.072024, 304.461011)"/>
    <rect x="61.157" y="86.84" width="6.5" height="77.24" style="transform-origin: 64.403px 125.463px; fill: rgb(248, 37, 0);" transform="matrix(0.866026, -0.499999, 0.499995, 0.866028, 797.982554, 347.890041)"/>
    <rect x="61.165" y="194.267" width="6.5" height="172.792" style="transform-origin: 64.415px 280.657px; fill: rgb(248, 37, 0);" transform="matrix(0, 1, -1, 0, 712.287986, 257.859988)"/>
    <rect x="61.162" y="20.76" width="6.5" height="18.465" style="transform-origin: 64.412px 29.993px; fill: rgb(248, 37, 0);" transform="matrix(0, 1, -1, 0, 631.900967, 461.520972)"/>
    <path style="fill: rgb(248, 37, 0);" d="M 806.474 403.858 L 827.822 403.94 L 816.551 386.379 L 810.895 389.389 L 815.768 397.398 L 806.477 397.398 L 806.474 403.858 Z"/>
    <path style="transform-origin: 704.756px 462.085px; fill: rgb(248, 37, 0);" d="M 695.905 472.389 L 714.546 471.061 L 702.394 451.78 L 696.995 455.601 L 702.626 465.347 L 694.966 466.141 L 695.905 472.389 Z" transform="matrix(-0.529919, 0.848048, -0.848048, -0.529919, 0.000063, -0.000006)"/>
    <path style="fill: rgb(248, 37, 0);" d="M 789.12 352.758 C 783.342 347.617 773.625 345.327 764.079 355.409 L 758.549 352.091 C 768.227 339.78 783.191 339.584 794.643 349.321 L 789.12 352.758 Z"/>
    <path style="fill: rgb(248, 37, 0);" d="M 790.086 403.738 C 790.086 403.738 790.744 397.944 789.779 397.493 C 788.814 397.042 787.038 395.651 780.962 384.513 L 777.512 390.487 C 783.052 403.164 783.826 402.501 790.086 403.738 Z"/>
    <path style="fill: rgb(248, 37, 0);" d="M 777.544 391.27 L 772.13 387.982 L 777.803 379.015 L 781.208 385.175 L 777.544 391.27 Z"/>
    <path style="fill: rgb(248, 37, 0);" d="M 750.692 423.24 L 756.376 426.415 L 755.672 427.533 L 760.356 427.64 L 758.001 434.097 L 744.782 434.009 L 750.692 423.24 Z"/>
    <path style="fill: rgb(248, 37, 0);" d="M 830.232 427.608 L 837.095 427.894 C 839.431 428.386 840.648 429.85 842.231 431.532 C 842.231 431.532 846.612 439.306 846.668 439.363 C 846.724 439.42 841.531 443.579 841.531 443.579 L 838.444 438.211 C 839.04 437.832 836.769 433.677 832.425 434.02 L 830.232 427.608 Z"/>
    <path style="fill: rgb(248, 37, 0);" d="M 671.075 500.762 L 676.575 503.306 C 678.57 500.032 679.429 495.372 688.116 494.69 L 689.108 488.419 C 685.545 487.697 676.137 488.692 671.075 500.762 Z"/>
    <path style="fill: rgb(248, 37, 0);" d="M 705.467 494.773 C 705.339 495.794 703.754 488.247 703.754 488.247 L 716.617 488.243 C 718.963 488.536 719.766 489.701 719.096 492.592 L 712.007 504.67 L 718.926 504.759 L 717.533 511.216 L 701.752 511.151 L 707.694 499.296 C 709.817 496.447 708.889 493.852 705.467 494.773 Z"/>
    <path style="fill: rgb(248, 37, 0);" d="M 809.629 459.049 L 809.272 465.584 C 820.909 465.866 818.721 465.455 822.787 470.738 L 827.977 466.849 C 827.032 464.235 822.862 458.981 818.704 459.106 L 809.629 459.049 Z"/>
    <path style="fill: rgb(248, 37, 0);" d="M 840.281 500.89 L 845.823 497.517 L 854.01 511.238 L 838.084 511.226 L 838.44 504.659 L 842.399 504.668 L 840.281 500.89 Z"/>
    <path style="fill: rgb(248, 37, 0);" d="M 878.574 507.533 L 883.86 504.302 L 887.908 514.759 C 889.555 518.657 885.678 528.036 882.587 532.625 L 880.065 534.966 C 878.486 536.264 872.236 541.062 865.284 541.462 L 862.466 541.556 L 862.448 535.653 L 865.165 535.553 C 871.234 533.297 880.608 529.588 881.601 517.754 L 878.574 507.533 Z"/>
    <path style="fill: rgb(248, 37, 0);" d="M 677.586 500.675 L 672.563 497.474 L 664.691 513.696 C 654.04 540.076 664.689 541.713 677.53 541.908 C 677.53 541.908 704.123 541.651 704.362 541.412 C 704.601 541.173 705.138 535.108 705.138 535.108 L 680.237 535.272 C 659.739 539.065 669.322 518.83 670.452 516.053 C 671.582 513.276 678.542 500.675 677.586 500.675 Z"/>
  </g>
</svg>